<svg xmlns="http://www.w3.org/2000/svg" width="152.544" height="23.168" viewBox="0 0 152.544 23.168"><defs><style>.a{fill:#777779;}</style></defs><path class="a" d="M7.3-18.176H.128V-22.4h19.52v4.224H12.48V0H7.3ZM32.96.384a13.075,13.075,0,0,1-6.288-1.5,11.163,11.163,0,0,1-4.384-4.144A11.313,11.313,0,0,1,20.7-11.2a11.313,11.313,0,0,1,1.584-5.936,11.163,11.163,0,0,1,4.384-4.144,13.075,13.075,0,0,1,6.288-1.5,12.982,12.982,0,0,1,6.272,1.5,11.307,11.307,0,0,1,4.384,4.144,11.227,11.227,0,0,1,1.6,5.936,11.227,11.227,0,0,1-1.6,5.936A11.307,11.307,0,0,1,39.232-1.12,12.982,12.982,0,0,1,32.96.384Zm0-4.416a7.108,7.108,0,0,0,3.584-.912,6.545,6.545,0,0,0,2.512-2.544,7.479,7.479,0,0,0,.912-3.712,7.479,7.479,0,0,0-.912-3.712,6.545,6.545,0,0,0-2.512-2.544,7.108,7.108,0,0,0-3.584-.912,7.108,7.108,0,0,0-3.584.912,6.545,6.545,0,0,0-2.512,2.544,7.478,7.478,0,0,0-.912,3.712,7.478,7.478,0,0,0,.912,3.712,6.545,6.545,0,0,0,2.512,2.544A7.108,7.108,0,0,0,32.96-4.032ZM49.12-22.4H59.3a14.3,14.3,0,0,1,6.448,1.392,10.422,10.422,0,0,1,4.352,3.92A11.026,11.026,0,0,1,71.648-11.2,11.026,11.026,0,0,1,70.1-5.312a10.422,10.422,0,0,1-4.352,3.92A14.3,14.3,0,0,1,59.3,0H49.12ZM59.04-4.256A7.528,7.528,0,0,0,64.4-6.128a6.612,6.612,0,0,0,2-5.072,6.612,6.612,0,0,0-2-5.072,7.528,7.528,0,0,0-5.36-1.872H54.3V-4.256ZM86.4.384a13.075,13.075,0,0,1-6.288-1.5,11.163,11.163,0,0,1-4.384-4.144A11.313,11.313,0,0,1,74.144-11.2a11.313,11.313,0,0,1,1.584-5.936,11.163,11.163,0,0,1,4.384-4.144,13.075,13.075,0,0,1,6.288-1.5,12.982,12.982,0,0,1,6.272,1.5,11.307,11.307,0,0,1,4.384,4.144,11.227,11.227,0,0,1,1.6,5.936,11.227,11.227,0,0,1-1.6,5.936A11.307,11.307,0,0,1,92.672-1.12,12.982,12.982,0,0,1,86.4.384Zm0-4.416a7.108,7.108,0,0,0,3.584-.912A6.545,6.545,0,0,0,92.5-7.488a7.478,7.478,0,0,0,.912-3.712,7.478,7.478,0,0,0-.912-3.712,6.545,6.545,0,0,0-2.512-2.544,7.108,7.108,0,0,0-3.584-.912,7.108,7.108,0,0,0-3.584.912A6.545,6.545,0,0,0,80.3-14.912a7.479,7.479,0,0,0-.912,3.712A7.479,7.479,0,0,0,80.3-7.488a6.545,6.545,0,0,0,2.512,2.544A7.108,7.108,0,0,0,86.4-4.032ZM113.408.384a13.075,13.075,0,0,1-6.288-1.5,11.163,11.163,0,0,1-4.384-4.144,11.313,11.313,0,0,1-1.584-5.936,11.313,11.313,0,0,1,1.584-5.936,11.163,11.163,0,0,1,4.384-4.144,13.075,13.075,0,0,1,6.288-1.5,12.982,12.982,0,0,1,6.272,1.5,11.307,11.307,0,0,1,4.384,4.144,11.227,11.227,0,0,1,1.6,5.936,11.227,11.227,0,0,1-1.6,5.936A11.307,11.307,0,0,1,119.68-1.12,12.982,12.982,0,0,1,113.408.384Zm0-4.416a7.108,7.108,0,0,0,3.584-.912A6.545,6.545,0,0,0,119.5-7.488a7.478,7.478,0,0,0,.912-3.712,7.478,7.478,0,0,0-.912-3.712,6.545,6.545,0,0,0-2.512-2.544,7.108,7.108,0,0,0-3.584-.912,7.108,7.108,0,0,0-3.584.912,6.545,6.545,0,0,0-2.512,2.544A7.479,7.479,0,0,0,106.4-11.2a7.479,7.479,0,0,0,.912,3.712,6.545,6.545,0,0,0,2.512,2.544A7.108,7.108,0,0,0,113.408-4.032ZM140.416.384a13.075,13.075,0,0,1-6.288-1.5,11.163,11.163,0,0,1-4.384-4.144A11.313,11.313,0,0,1,128.16-11.2a11.313,11.313,0,0,1,1.584-5.936,11.163,11.163,0,0,1,4.384-4.144,13.075,13.075,0,0,1,6.288-1.5,12.982,12.982,0,0,1,6.272,1.5,11.307,11.307,0,0,1,4.384,4.144,11.227,11.227,0,0,1,1.6,5.936,11.227,11.227,0,0,1-1.6,5.936,11.307,11.307,0,0,1-4.384,4.144A12.982,12.982,0,0,1,140.416.384Zm0-4.416A7.108,7.108,0,0,0,144-4.944a6.545,6.545,0,0,0,2.512-2.544,7.479,7.479,0,0,0,.912-3.712,7.479,7.479,0,0,0-.912-3.712A6.545,6.545,0,0,0,144-17.456a7.108,7.108,0,0,0-3.584-.912,7.108,7.108,0,0,0-3.584.912,6.545,6.545,0,0,0-2.512,2.544,7.478,7.478,0,0,0-.912,3.712,7.478,7.478,0,0,0,.912,3.712,6.545,6.545,0,0,0,2.512,2.544A7.108,7.108,0,0,0,140.416-4.032Z" transform="translate(-0.128 22.784)"/></svg>